<svg viewBox="0 0 120 120" fill="none" xmlns="http://www.w3.org/2000/svg">
  <path d="M60 8 L104 30 L104 70 L60 112 L16 70 L16 30 Z" stroke="#0f62fe" stroke-width="4" fill="none"/>
  <path d="M60 28 L84 48 L84 76 L60 92 L36 76 L36 48 Z" stroke="#0f62fe" stroke-width="2.5" fill="none" opacity="0.4"/>
  <circle cx="60" cy="60" r="9" fill="#0f62fe"/>
  <circle cx="60" cy="8" r="5.5" fill="#0f62fe" opacity="0.7"/>
  <circle cx="104" cy="30" r="5.5" fill="#0f62fe" opacity="0.7"/>
  <circle cx="104" cy="70" r="5.5" fill="#0f62fe" opacity="0.7"/>
  <circle cx="60" cy="112" r="5.5" fill="#0f62fe" opacity="0.7"/>
  <circle cx="16" cy="70" r="5.5" fill="#0f62fe" opacity="0.7"/>
  <circle cx="16" cy="30" r="5.5" fill="#0f62fe" opacity="0.7"/>
  <line x1="60" y1="60" x2="60" y2="8" stroke="#0f62fe" stroke-width="1.5" opacity="0.25"/>
  <line x1="60" y1="60" x2="104" y2="30" stroke="#0f62fe" stroke-width="1.5" opacity="0.25"/>
  <line x1="60" y1="60" x2="104" y2="70" stroke="#0f62fe" stroke-width="1.5" opacity="0.25"/>
  <line x1="60" y1="60" x2="60" y2="112" stroke="#0f62fe" stroke-width="1.5" opacity="0.25"/>
  <line x1="60" y1="60" x2="16" y2="70" stroke="#0f62fe" stroke-width="1.5" opacity="0.25"/>
  <line x1="60" y1="60" x2="16" y2="30" stroke="#0f62fe" stroke-width="1.5" opacity="0.25"/>
  <line x1="60" y1="8" x2="104" y2="30" stroke="#0f62fe" stroke-width="1.2" opacity="0.15"/>
  <line x1="104" y1="30" x2="104" y2="70" stroke="#0f62fe" stroke-width="1.2" opacity="0.15"/>
  <line x1="104" y1="70" x2="60" y2="112" stroke="#0f62fe" stroke-width="1.2" opacity="0.15"/>
  <line x1="60" y1="112" x2="16" y2="70" stroke="#0f62fe" stroke-width="1.2" opacity="0.15"/>
  <line x1="16" y1="70" x2="16" y2="30" stroke="#0f62fe" stroke-width="1.2" opacity="0.15"/>
  <line x1="16" y1="30" x2="60" y2="8" stroke="#0f62fe" stroke-width="1.2" opacity="0.15"/>
</svg>
